<svg xmlns="http://www.w3.org/2000/svg" version="1.1" xmlns:xlink="http://www.w3.org/1999/xlink" xmlns:svgjs="http://svgjs.dev/svgjs" width="1242" height="128" preserveAspectRatio="none" viewBox="0 0 1242 128">
    <g mask="url(&quot;#SvgjsMask1242&quot;)" fill="none">
        <rect width="1242" height="128" x="0" y="0" fill="url(&quot;#SvgjsLinearGradient1243&quot;)"></rect>
        <path d="M1006.98 51.75L1006.98 53.36L1014.43 53.36L1014.43 51.75zM1011.58 52.56 a2.85 2.85 0 1 0 5.7 0 a2.85 2.85 0 1 0 -5.7 0zM1004.95 63.56L1004.34 65.04L1014.38 69.2L1014.99 67.72zM1011.84 68.46 a2.85 2.85 0 1 0 5.7 0 a2.85 2.85 0 1 0 -5.7 0zM998.56 73.69L997.42 74.83L1004.52 81.92L1005.65 80.78zM1002.23 81.35 a2.85 2.85 0 1 0 5.7 0 a2.85 2.85 0 1 0 -5.7 0zM988.78 80.6L987.29 81.22L991.89 92.32L993.38 91.71zM989.78 92.02 a2.85 2.85 0 1 0 5.7 0 a2.85 2.85 0 1 0 -5.7 0zM977.09 83.25L975.49 83.25L975.49 96.09L977.09 96.09zM973.44 96.09 a2.85 2.85 0 1 0 5.7 0 a2.85 2.85 0 1 0 -5.7 0zM965.29 81.22L963.8 80.6L959.4 91.22L960.89 91.83zM957.3 91.53 a2.85 2.85 0 1 0 5.7 0 a2.85 2.85 0 1 0 -5.7 0zM955.16 74.83L954.02 73.69L945.26 82.45L946.39 83.59zM942.98 83.02 a2.85 2.85 0 1 0 5.7 0 a2.85 2.85 0 1 0 -5.7 0zM948.24 65.04L947.63 63.56L943.13 65.42L943.74 66.91zM940.58 66.16 a2.85 2.85 0 1 0 5.7 0 a2.85 2.85 0 1 0 -5.7 0zM945.6 53.36L945.6 51.75L937.73 51.75L937.73 53.36zM934.88 52.56 a2.85 2.85 0 1 0 5.7 0 a2.85 2.85 0 1 0 -5.7 0zM947.63 41.55L948.24 40.07L939.61 36.49L939 37.98zM936.45 37.24 a2.85 2.85 0 1 0 5.7 0 a2.85 2.85 0 1 0 -5.7 0zM954.02 31.42L955.16 30.28L947.25 22.38L946.11 23.52zM943.83 22.95 a2.85 2.85 0 1 0 5.7 0 a2.85 2.85 0 1 0 -5.7 0zM963.8 24.51L965.29 23.89L962.09 16.17L960.6 16.78zM958.49 16.48 a2.85 2.85 0 1 0 5.7 0 a2.85 2.85 0 1 0 -5.7 0zM975.49 21.86L977.09 21.86L977.09 16.14L975.49 16.14zM973.44 16.14 a2.85 2.85 0 1 0 5.7 0 a2.85 2.85 0 1 0 -5.7 0zM987.29 23.89L988.78 24.51L993.77 12.45L992.29 11.84zM990.18 12.14 a2.85 2.85 0 1 0 5.7 0 a2.85 2.85 0 1 0 -5.7 0zM997.42 30.28L998.56 31.42L1008.99 20.99L1007.85 19.85zM1005.57 20.42 a2.85 2.85 0 1 0 5.7 0 a2.85 2.85 0 1 0 -5.7 0zM1004.34 40.07L1004.95 41.55L1016.27 36.86L1015.65 35.38zM1013.11 36.12 a2.85 2.85 0 1 0 5.7 0 a2.85 2.85 0 1 0 -5.7 0zM945.59 52.56 a30.7 30.7 0 1 0 61.4 0 a30.7 30.7 0 1 0 -61.4 0z" fill="rgba(179, 142, 93, 1)" class="triangle-float1"></path>
        <path d="M957.98 77.2 A29.70224 29.70224 0 0 1 964.05 24.4M964.05 24.4 A61.40448 61.40448 0 0 0 957.98 77.2" fill="#947246" fill-rule="nonzero" class="triangle-float1"></path>
        <path d="M991.56 70.15 a4.3 4.3 0 1 0 8.6 0 a4.3 4.3 0 1 0 -8.6 0zM946.05 47.95 a5.83 5.83 0 1 0 11.66 0 a5.83 5.83 0 1 0 -11.66 0zM980.05 33.3 a6.14 6.14 0 1 0 12.28 0 a6.14 6.14 0 1 0 -12.28 0zM974.56 53.66 a6.14 6.14 0 1 0 12.28 0 a6.14 6.14 0 1 0 -12.28 0zM966.96 58.99 a1.23 1.23 0 1 0 2.46 0 a1.23 1.23 0 1 0 -2.46 0zM958.24 35.21 a4.91 4.91 0 1 0 9.82 0 a4.91 4.91 0 1 0 -9.82 0zM961.85 69.51 a3.38 3.38 0 1 0 6.76 0 a3.38 3.38 0 1 0 -6.76 0zM992.37 44.63 a1.23 1.23 0 1 0 2.46 0 a1.23 1.23 0 1 0 -2.46 0zM978.22 80.66 a2.15 2.15 0 1 0 4.3 0 a2.15 2.15 0 1 0 -4.3 0zM953.18 69.91 a1.23 1.23 0 1 0 2.46 0 a1.23 1.23 0 1 0 -2.46 0z" fill="#947246" fill-rule="nonzero" class="triangle-float1"></path>

        <path d="M367.5 70.88L367.5 72.49L380.98 72.49L380.98 70.88zM378.13 71.69 a2.85 2.85 0 1 0 5.7 0 a2.85 2.85 0 1 0 -5.7 0zM365.48 82.69L364.86 84.18L373.62 87.8L374.23 86.32zM371.08 87.06 a2.85 2.85 0 1 0 5.7 0 a2.85 2.85 0 1 0 -5.7 0zM359.08 92.82L357.95 93.96L367.13 103.14L368.27 102.01zM364.85 102.58 a2.85 2.85 0 1 0 5.7 0 a2.85 2.85 0 1 0 -5.7 0zM349.3 99.74L347.82 100.35L353.5 114.07L354.98 113.46zM351.39 113.76 a2.85 2.85 0 1 0 5.7 0 a2.85 2.85 0 1 0 -5.7 0zM337.62 102.38L336.01 102.38L336.01 106.57L337.62 106.57zM333.96 106.57 a2.85 2.85 0 1 0 5.7 0 a2.85 2.85 0 1 0 -5.7 0zM325.81 100.35L324.33 99.74L321.95 105.47L323.43 106.09zM319.84 105.78 a2.85 2.85 0 1 0 5.7 0 a2.85 2.85 0 1 0 -5.7 0zM315.68 93.96L314.54 92.82L305 102.36L306.14 103.5zM302.72 102.93 a2.85 2.85 0 1 0 5.7 0 a2.85 2.85 0 1 0 -5.7 0zM308.77 84.18L308.15 82.69L294.8 88.22L295.41 89.71zM292.26 88.96 a2.85 2.85 0 1 0 5.7 0 a2.85 2.85 0 1 0 -5.7 0zM306.12 72.49L306.12 70.88L295.09 70.88L295.09 72.49zM292.24 71.69 a2.85 2.85 0 1 0 5.7 0 a2.85 2.85 0 1 0 -5.7 0zM308.15 60.69L308.77 59.2L295.96 53.9L295.34 55.38zM292.8 54.64 a2.85 2.85 0 1 0 5.7 0 a2.85 2.85 0 1 0 -5.7 0zM314.54 50.55L315.68 49.42L308.25 41.99L307.11 43.12zM304.83 42.55 a2.85 2.85 0 1 0 5.7 0 a2.85 2.85 0 1 0 -5.7 0zM324.33 43.64L325.81 43.02L322.09 34.04L320.6 34.65zM318.49 34.34 a2.85 2.85 0 1 0 5.7 0 a2.85 2.85 0 1 0 -5.7 0zM336.01 41L337.62 41L337.62 26.06L336.01 26.06zM333.96 26.06 a2.85 2.85 0 1 0 5.7 0 a2.85 2.85 0 1 0 -5.7 0zM347.82 43.02L349.3 43.64L352.19 36.67L350.7 36.06zM348.59 36.37 a2.85 2.85 0 1 0 5.7 0 a2.85 2.85 0 1 0 -5.7 0zM357.95 49.42L359.08 50.55L368.8 40.84L367.66 39.7zM365.38 40.27 a2.85 2.85 0 1 0 5.7 0 a2.85 2.85 0 1 0 -5.7 0zM364.86 59.2L365.48 60.69L375.38 56.58L374.76 55.1zM372.22 55.84 a2.85 2.85 0 1 0 5.7 0 a2.85 2.85 0 1 0 -5.7 0zM306.11 71.69 a30.7 30.7 0 1 0 61.4 0 a30.7 30.7 0 1 0 -61.4 0z" fill="rgba(179, 142, 93, 1)" class="triangle-float2"></path>
        <path d="M324.01 99.59 A29.70224 29.70224 0 0 1 318.99 46.69M318.99 46.69 A61.40448 61.40448 0 0 0 324.01 99.59" fill="#947246" fill-rule="nonzero" class="triangle-float2"></path>
        <path d="M337.01 92.42 a6.14 6.14 0 1 0 12.28 0 a6.14 6.14 0 1 0 -12.28 0zM337.19 64.8 a6.14 6.14 0 1 0 12.28 0 a6.14 6.14 0 1 0 -12.28 0zM352.09 82.83 a3.07 3.07 0 1 0 6.14 0 a3.07 3.07 0 1 0 -6.14 0zM335.33 44.92 a3.68 3.68 0 1 0 7.36 0 a3.68 3.68 0 1 0 -7.36 0zM313.45 57.93 a6.14 6.14 0 1 0 12.28 0 a6.14 6.14 0 1 0 -12.28 0zM355.63 59.1 a4.3 4.3 0 1 0 8.6 0 a4.3 4.3 0 1 0 -8.6 0zM308.72 81.88 a6.14 6.14 0 1 0 12.28 0 a6.14 6.14 0 1 0 -12.28 0zM323.32 96.6 a3.68 3.68 0 1 0 7.36 0 a3.68 3.68 0 1 0 -7.36 0zM357.84 72.88 a1.23 1.23 0 1 0 2.46 0 a1.23 1.23 0 1 0 -2.46 0zM328.79 80.47 a3.68 3.68 0 1 0 7.36 0 a3.68 3.68 0 1 0 -7.36 0z" fill="#947246" fill-rule="nonzero" class="triangle-float2"></path>

        <path d="M752.85 61.14L752.85 62.75L763.03 62.75L763.03 61.14zM760.18 61.95 a2.85 2.85 0 1 0 5.7 0 a2.85 2.85 0 1 0 -5.7 0zM750.82 72.95L750.2 74.44L760.6 78.74L761.21 77.26zM758.05 78 a2.85 2.85 0 1 0 5.7 0 a2.85 2.85 0 1 0 -5.7 0zM744.43 83.08L743.29 84.22L747.86 88.79L749 87.66zM745.58 88.23 a2.85 2.85 0 1 0 5.7 0 a2.85 2.85 0 1 0 -5.7 0zM734.64 90L733.16 90.61L736.22 98L737.71 97.39zM734.11 97.69 a2.85 2.85 0 1 0 5.7 0 a2.85 2.85 0 1 0 -5.7 0zM722.96 92.64L721.35 92.64L721.35 97.02L722.96 97.02zM719.31 97.02 a2.85 2.85 0 1 0 5.7 0 a2.85 2.85 0 1 0 -5.7 0zM711.15 90.61L709.67 90L704.85 101.64L706.33 102.25zM702.74 101.94 a2.85 2.85 0 1 0 5.7 0 a2.85 2.85 0 1 0 -5.7 0zM701.02 84.22L699.89 83.08L695.53 87.44L696.67 88.57zM693.25 88.01 a2.85 2.85 0 1 0 5.7 0 a2.85 2.85 0 1 0 -5.7 0zM694.11 74.44L693.49 72.95L681.12 78.08L681.74 79.56zM678.58 78.82 a2.85 2.85 0 1 0 5.7 0 a2.85 2.85 0 1 0 -5.7 0zM691.46 62.75L691.46 61.14L684.06 61.14L684.06 62.75zM681.21 61.95 a2.85 2.85 0 1 0 5.7 0 a2.85 2.85 0 1 0 -5.7 0zM693.49 50.95L694.11 49.46L685.27 45.8L684.65 47.28zM682.11 46.54 a2.85 2.85 0 1 0 5.7 0 a2.85 2.85 0 1 0 -5.7 0zM699.89 40.81L701.02 39.68L693.65 32.3L692.51 33.44zM690.23 32.87 a2.85 2.85 0 1 0 5.7 0 a2.85 2.85 0 1 0 -5.7 0zM709.67 33.9L711.15 33.29L709.09 28.3L707.6 28.91zM705.49 28.6 a2.85 2.85 0 1 0 5.7 0 a2.85 2.85 0 1 0 -5.7 0zM721.35 31.26L722.96 31.26L722.96 25.14L721.35 25.14zM719.31 25.14 a2.85 2.85 0 1 0 5.7 0 a2.85 2.85 0 1 0 -5.7 0zM733.16 33.29L734.64 33.9L737.62 26.71L736.14 26.1zM734.03 26.4 a2.85 2.85 0 1 0 5.7 0 a2.85 2.85 0 1 0 -5.7 0zM743.29 39.68L744.43 40.81L751.63 33.61L750.5 32.47zM748.21 33.04 a2.85 2.85 0 1 0 5.7 0 a2.85 2.85 0 1 0 -5.7 0zM750.2 49.46L750.82 50.95L755.54 48.99L754.92 47.5zM752.38 48.25 a2.85 2.85 0 1 0 5.7 0 a2.85 2.85 0 1 0 -5.7 0zM691.46 61.95 a30.7 30.7 0 1 0 61.4 0 a30.7 30.7 0 1 0 -61.4 0z" fill="rgba(179, 142, 93, 1)" class="triangle-float3"></path>
        <path d="M745.05 82.4 A29.70224 29.70224 0 0 1 693.01 71.61M693.01 71.61 A61.40448 61.40448 0 0 0 745.05 82.4" fill="#947246" fill-rule="nonzero" class="triangle-float3"></path>
        <path d="M723.4 44.73 a6.14 6.14 0 1 0 12.28 0 a6.14 6.14 0 1 0 -12.28 0zM707.81 72.42 a6.14 6.14 0 1 0 12.28 0 a6.14 6.14 0 1 0 -12.28 0zM726.47 71.44 a2.76 2.76 0 1 0 5.52 0 a2.76 2.76 0 1 0 -5.52 0zM725.71 81.97 a1.54 1.54 0 1 0 3.08 0 a1.54 1.54 0 1 0 -3.08 0zM703.49 61.12 a1.84 1.84 0 1 0 3.68 0 a1.84 1.84 0 1 0 -3.68 0zM696.88 50.79 a3.38 3.38 0 1 0 6.76 0 a3.38 3.38 0 1 0 -6.76 0zM735.59 58.49 a5.53 5.53 0 1 0 11.06 0 a5.53 5.53 0 1 0 -11.06 0zM698.17 80.02 a2.76 2.76 0 1 0 5.52 0 a2.76 2.76 0 1 0 -5.52 0zM695.26 67.77 a2.15 2.15 0 1 0 4.3 0 a2.15 2.15 0 1 0 -4.3 0zM734.88 84.45 a1.84 1.84 0 1 0 3.68 0 a1.84 1.84 0 1 0 -3.68 0z" fill="#947246" fill-rule="nonzero" class="triangle-float3"></path>

        <path d="M1198.86 66.92L1198.86 68.52L1205.58 68.52L1205.58 66.92zM1202.73 67.72 a2.85 2.85 0 1 0 5.7 0 a2.85 2.85 0 1 0 -5.7 0zM1196.84 78.72L1196.22 80.21L1205.28 83.96L1205.9 82.48zM1202.74 83.22 a2.85 2.85 0 1 0 5.7 0 a2.85 2.85 0 1 0 -5.7 0zM1190.44 88.85L1189.31 89.99L1195.5 96.19L1196.64 95.05zM1193.22 95.62 a2.85 2.85 0 1 0 5.7 0 a2.85 2.85 0 1 0 -5.7 0zM1180.66 95.77L1179.18 96.38L1184.38 108.94L1185.86 108.32zM1182.27 108.63 a2.85 2.85 0 1 0 5.7 0 a2.85 2.85 0 1 0 -5.7 0zM1168.98 98.41L1167.37 98.41L1167.37 102.85L1168.98 102.85zM1165.32 102.85 a2.85 2.85 0 1 0 5.7 0 a2.85 2.85 0 1 0 -5.7 0zM1157.17 96.38L1155.68 95.77L1153.38 101.32L1154.87 101.94zM1151.28 101.63 a2.85 2.85 0 1 0 5.7 0 a2.85 2.85 0 1 0 -5.7 0zM1147.04 89.99L1145.9 88.85L1138.07 96.68L1139.21 97.82zM1135.79 97.25 a2.85 2.85 0 1 0 5.7 0 a2.85 2.85 0 1 0 -5.7 0zM1140.12 80.21L1139.51 78.72L1130.17 82.59L1130.78 84.08zM1127.63 83.33 a2.85 2.85 0 1 0 5.7 0 a2.85 2.85 0 1 0 -5.7 0zM1137.48 68.52L1137.48 66.92L1126.59 66.92L1126.59 68.52zM1123.74 67.72 a2.85 2.85 0 1 0 5.7 0 a2.85 2.85 0 1 0 -5.7 0zM1139.51 56.72L1140.12 55.23L1132.1 51.91L1131.48 53.39zM1128.94 52.65 a2.85 2.85 0 1 0 5.7 0 a2.85 2.85 0 1 0 -5.7 0zM1145.9 46.59L1147.04 45.45L1136.42 34.83L1135.28 35.97zM1133 35.4 a2.85 2.85 0 1 0 5.7 0 a2.85 2.85 0 1 0 -5.7 0zM1155.68 39.67L1157.17 39.06L1155.62 35.33L1154.14 35.94zM1152.03 35.63 a2.85 2.85 0 1 0 5.7 0 a2.85 2.85 0 1 0 -5.7 0zM1167.37 37.03L1168.98 37.03L1168.98 30.25L1167.37 30.25zM1165.32 30.25 a2.85 2.85 0 1 0 5.7 0 a2.85 2.85 0 1 0 -5.7 0zM1179.18 39.06L1180.66 39.67L1183.26 33.39L1181.78 32.78zM1179.67 33.08 a2.85 2.85 0 1 0 5.7 0 a2.85 2.85 0 1 0 -5.7 0zM1189.31 45.45L1190.44 46.59L1195.71 41.32L1194.57 40.18zM1192.29 40.75 a2.85 2.85 0 1 0 5.7 0 a2.85 2.85 0 1 0 -5.7 0zM1196.22 55.23L1196.84 56.72L1201.97 54.59L1201.36 53.11zM1198.81 53.85 a2.85 2.85 0 1 0 5.7 0 a2.85 2.85 0 1 0 -5.7 0zM1137.47 67.72 a30.7 30.7 0 1 0 61.4 0 a30.7 30.7 0 1 0 -61.4 0z" fill="rgba(179, 142, 93, 1)" class="triangle-float1"></path>
        <path d="M1137.85 62.92 A29.70224 29.70224 0 0 1 1187.44 43.82M1187.44 43.82 A61.40448 61.40448 0 0 0 1137.85 62.92" fill="#947246" fill-rule="nonzero" class="triangle-float1"></path>
        <path d="M1168.53 65.37 a6.14 6.14 0 1 0 12.28 0 a6.14 6.14 0 1 0 -12.28 0zM1160 76.29 a3.38 3.38 0 1 0 6.76 0 a3.38 3.38 0 1 0 -6.76 0zM1158.88 87.76 a2.15 2.15 0 1 0 4.3 0 a2.15 2.15 0 1 0 -4.3 0zM1189.49 81.58 a2.76 2.76 0 1 0 5.52 0 a2.76 2.76 0 1 0 -5.52 0zM1145.42 50.75 a6.14 6.14 0 1 0 12.28 0 a6.14 6.14 0 1 0 -12.28 0zM1162.6 44.01 a4.61 4.61 0 1 0 9.22 0 a4.61 4.61 0 1 0 -9.22 0zM1177.49 88.77 a3.99 3.99 0 1 0 7.98 0 a3.99 3.99 0 1 0 -7.98 0zM1150.1 86.75 a1.23 1.23 0 1 0 2.46 0 a1.23 1.23 0 1 0 -2.46 0zM1137.62 67.77 a2.76 2.76 0 1 0 5.52 0 a2.76 2.76 0 1 0 -5.52 0zM1157.09 63.21 a2.46 2.46 0 1 0 4.92 0 a2.46 2.46 0 1 0 -4.92 0z" fill="#947246" fill-rule="nonzero" class="triangle-float1"></path>

        <path d="M551.96 69.52L551.96 71.12L557.77 71.12L557.77 69.52zM554.92 70.32 a2.85 2.85 0 1 0 5.7 0 a2.85 2.85 0 1 0 -5.7 0zM549.93 81.32L549.31 82.81L558.37 86.56L558.98 85.07zM555.82 85.81 a2.85 2.85 0 1 0 5.7 0 a2.85 2.85 0 1 0 -5.7 0zM543.54 91.45L542.4 92.59L547.17 97.36L548.3 96.22zM544.88 96.79 a2.85 2.85 0 1 0 5.7 0 a2.85 2.85 0 1 0 -5.7 0zM533.75 98.37L532.27 98.98L536.14 108.32L537.62 107.71zM534.03 108.01 a2.85 2.85 0 1 0 5.7 0 a2.85 2.85 0 1 0 -5.7 0zM522.07 101.01L520.46 101.01L520.46 114.1L522.07 114.1zM518.42 114.1 a2.85 2.85 0 1 0 5.7 0 a2.85 2.85 0 1 0 -5.7 0zM510.26 98.98L508.78 98.37L505.04 107.38L506.53 108zM502.94 107.69 a2.85 2.85 0 1 0 5.7 0 a2.85 2.85 0 1 0 -5.7 0zM500.13 92.59L498.99 91.45L490.59 99.86L491.72 101zM488.31 100.43 a2.85 2.85 0 1 0 5.7 0 a2.85 2.85 0 1 0 -5.7 0zM493.22 82.81L492.6 81.32L482.26 85.61L482.87 87.09zM479.71 86.35 a2.85 2.85 0 1 0 5.7 0 a2.85 2.85 0 1 0 -5.7 0zM490.57 71.12L490.57 69.52L480.48 69.52L480.48 71.12zM477.63 70.32 a2.85 2.85 0 1 0 5.7 0 a2.85 2.85 0 1 0 -5.7 0zM492.6 59.32L493.22 57.83L481.1 52.81L480.48 54.3zM477.94 53.55 a2.85 2.85 0 1 0 5.7 0 a2.85 2.85 0 1 0 -5.7 0zM498.99 49.18L500.13 48.05L491.14 39.06L490.01 40.2zM487.73 39.63 a2.85 2.85 0 1 0 5.7 0 a2.85 2.85 0 1 0 -5.7 0zM508.78 42.27L510.26 41.66L504.53 27.81L503.04 28.42zM500.93 28.11 a2.85 2.85 0 1 0 5.7 0 a2.85 2.85 0 1 0 -5.7 0zM520.46 39.63L522.07 39.63L522.07 25.75L520.46 25.75zM518.42 25.75 a2.85 2.85 0 1 0 5.7 0 a2.85 2.85 0 1 0 -5.7 0zM532.27 41.66L533.75 42.27L538.17 31.6L536.69 30.99zM534.58 31.29 a2.85 2.85 0 1 0 5.7 0 a2.85 2.85 0 1 0 -5.7 0zM542.4 48.05L543.54 49.18L552.71 40.01L551.58 38.87zM549.3 39.44 a2.85 2.85 0 1 0 5.7 0 a2.85 2.85 0 1 0 -5.7 0zM549.31 57.83L549.93 59.32L561.42 54.56L560.81 53.07zM558.26 53.81 a2.85 2.85 0 1 0 5.7 0 a2.85 2.85 0 1 0 -5.7 0zM490.57 70.32 a30.7 30.7 0 1 0 61.4 0 a30.7 30.7 0 1 0 -61.4 0z" fill="rgba(157, 36, 73, 1)" class="triangle-float2"></path>
        <path d="M495.15 86.47 A29.70224 29.70224 0 0 1 520.27 39.63M520.27 39.63 A61.40448 61.40448 0 0 0 495.15 86.47" fill="#7e1d3a" fill-rule="nonzero" class="triangle-float2"></path>
        <path d="M536.55 92 a2.46 2.46 0 1 0 4.92 0 a2.46 2.46 0 1 0 -4.92 0zM493.44 82.07 a4.61 4.61 0 1 0 9.22 0 a4.61 4.61 0 1 0 -9.22 0zM491.13 65.36 a3.38 3.38 0 1 0 6.76 0 a3.38 3.38 0 1 0 -6.76 0zM524.33 56.9 a6.14 6.14 0 1 0 12.28 0 a6.14 6.14 0 1 0 -12.28 0zM520.05 86.73 a5.53 5.53 0 1 0 11.06 0 a5.53 5.53 0 1 0 -11.06 0zM525.62 72.28 a3.07 3.07 0 1 0 6.14 0 a3.07 3.07 0 1 0 -6.14 0zM508.04 86.64 a2.15 2.15 0 1 0 4.3 0 a2.15 2.15 0 1 0 -4.3 0zM504.12 63.67 a5.53 5.53 0 1 0 11.06 0 a5.53 5.53 0 1 0 -11.06 0zM537.72 75.46 a2.15 2.15 0 1 0 4.3 0 a2.15 2.15 0 1 0 -4.3 0zM509.31 96.36 a1.23 1.23 0 1 0 2.46 0 a1.23 1.23 0 1 0 -2.46 0z" fill="#7e1d3a" fill-rule="nonzero" class="triangle-float2"></path>

        <path d="M124.28 69.44L124.28 71.05L137.55 71.05L137.55 69.44zM134.7 70.24 a2.85 2.85 0 1 0 5.7 0 a2.85 2.85 0 1 0 -5.7 0zM122.25 81.25L121.64 82.73L125.58 84.36L126.2 82.88zM123.04 83.62 a2.85 2.85 0 1 0 5.7 0 a2.85 2.85 0 1 0 -5.7 0zM115.86 91.38L114.73 92.51L121.44 99.22L122.57 98.09zM119.15 98.66 a2.85 2.85 0 1 0 5.7 0 a2.85 2.85 0 1 0 -5.7 0zM106.08 98.29L104.59 98.91L108.35 107.97L109.83 107.35zM106.24 107.66 a2.85 2.85 0 1 0 5.7 0 a2.85 2.85 0 1 0 -5.7 0zM94.39 100.93L92.79 100.93L92.79 113.58L94.39 113.58zM90.74 113.58 a2.85 2.85 0 1 0 5.7 0 a2.85 2.85 0 1 0 -5.7 0zM82.59 98.91L81.1 98.29L75.36 112.16L76.84 112.77zM73.25 112.47 a2.85 2.85 0 1 0 5.7 0 a2.85 2.85 0 1 0 -5.7 0zM72.46 92.51L71.32 91.38L60.92 101.78L62.06 102.92zM58.64 102.35 a2.85 2.85 0 1 0 5.7 0 a2.85 2.85 0 1 0 -5.7 0zM65.54 82.73L64.93 81.25L57.05 84.51L57.66 86zM54.51 85.25 a2.85 2.85 0 1 0 5.7 0 a2.85 2.85 0 1 0 -5.7 0zM62.9 71.05L62.9 69.44L56.05 69.44L56.05 71.05zM53.2 70.24 a2.85 2.85 0 1 0 5.7 0 a2.85 2.85 0 1 0 -5.7 0zM64.93 59.24L65.54 57.76L53.38 52.72L52.76 54.2zM50.22 53.46 a2.85 2.85 0 1 0 5.7 0 a2.85 2.85 0 1 0 -5.7 0zM71.32 49.11L72.46 47.97L69.23 44.75L68.1 45.88zM65.81 45.32 a2.85 2.85 0 1 0 5.7 0 a2.85 2.85 0 1 0 -5.7 0zM81.1 42.2L82.59 41.58L77.64 29.63L76.16 30.25zM74.05 29.94 a2.85 2.85 0 1 0 5.7 0 a2.85 2.85 0 1 0 -5.7 0zM92.79 39.55L94.39 39.55L94.39 28.78L92.79 28.78zM90.74 28.78 a2.85 2.85 0 1 0 5.7 0 a2.85 2.85 0 1 0 -5.7 0zM104.59 41.58L106.08 42.2L111.09 30.09L109.61 29.48zM107.5 29.78 a2.85 2.85 0 1 0 5.7 0 a2.85 2.85 0 1 0 -5.7 0zM114.73 47.97L115.86 49.11L123.99 40.98L122.85 39.85zM120.57 40.42 a2.85 2.85 0 1 0 5.7 0 a2.85 2.85 0 1 0 -5.7 0zM121.64 57.76L122.25 59.24L126.33 57.55L125.71 56.07zM123.17 56.81 a2.85 2.85 0 1 0 5.7 0 a2.85 2.85 0 1 0 -5.7 0zM62.89 70.24 a30.7 30.7 0 1 0 61.4 0 a30.7 30.7 0 1 0 -61.4 0z" fill="rgba(157, 36, 73, 1)" class="triangle-float3"></path>
        <path d="M87.24 100.28 A29.70224 29.70224 0 0 1 70.71 49.77M70.71 49.77 A61.40448 61.40448 0 0 0 87.24 100.28" fill="#7e1d3a" fill-rule="nonzero" class="triangle-float3"></path>
        <path d="M79.54 93.05 a6.14 6.14 0 1 0 12.28 0 a6.14 6.14 0 1 0 -12.28 0zM68.29 62.37 a6.14 6.14 0 1 0 12.28 0 a6.14 6.14 0 1 0 -12.28 0zM89.88 57.19 a6.14 6.14 0 1 0 12.28 0 a6.14 6.14 0 1 0 -12.28 0zM97.8 90.04 a3.68 3.68 0 1 0 7.36 0 a3.68 3.68 0 1 0 -7.36 0zM112.03 58.41 a4.61 4.61 0 1 0 9.22 0 a4.61 4.61 0 1 0 -9.22 0zM101.29 77.28 a3.07 3.07 0 1 0 6.14 0 a3.07 3.07 0 1 0 -6.14 0zM78.8 45.26 a3.07 3.07 0 1 0 6.14 0 a3.07 3.07 0 1 0 -6.14 0zM112.96 73.54 a1.84 1.84 0 1 0 3.68 0 a1.84 1.84 0 1 0 -3.68 0zM70.67 76.61 a1.84 1.84 0 1 0 3.68 0 a1.84 1.84 0 1 0 -3.68 0zM88.95 75.48 a3.07 3.07 0 1 0 6.14 0 a3.07 3.07 0 1 0 -6.14 0z" fill="#7e1d3a" fill-rule="nonzero" class="triangle-float3"></path>
    </g>
    <defs>
        <mask id="SvgjsMask1242">
            <rect width="1242" height="128" fill="#ffffff"></rect>
        </mask>
        <linearGradient x1="22.42%" y1="-217.58%" x2="77.58%" y2="317.58%" gradientUnits="userSpaceOnUse" id="SvgjsLinearGradient1243">
            <stop stop-color="rgba(156, 55, 57, 1)" offset="0"></stop>
            <stop stop-color="rgba(156, 55, 57, 1)" offset="0.52"></stop>
            <stop stop-color="rgba(148, 12, 83, 1)" offset="1"></stop>
        </linearGradient>

        <style>
            @keyframes float1 {
                    0%{transform: translate(0, 0)}
                    50%{transform: translate(-10px, 0)}
                    100%{transform: translate(0, 0)}
                }

                .triangle-float1 {
                    animation: float1 5s infinite;
                }

                @keyframes float2 {
                    0%{transform: translate(0, 0)}
                    50%{transform: translate(-5px, -5px)}
                    100%{transform: translate(0, 0)}
                }

                .triangle-float2 {
                    animation: float2 4s infinite;
                }

                @keyframes float3 {
                    0%{transform: translate(0, 0)}
                    50%{transform: translate(0, -10px)}
                    100%{transform: translate(0, 0)}
                }

                .triangle-float3 {
                    animation: float3 6s infinite;
                }
        </style>
    </defs>
</svg>
