<svg xmlns="http://www.w3.org/2000/svg" version="1.1" xmlns:xlink="http://www.w3.org/1999/xlink" xmlns:svgjs="http://svgjs.dev/svgjs" width="1242" height="128" preserveAspectRatio="none" viewBox="0 0 1242 128">
    <g mask="url(&quot;#SvgjsMask1186&quot;)" fill="none">
        <rect width="1242" height="128" x="0" y="0" fill="url(&quot;#SvgjsLinearGradient1187&quot;)"></rect>
        <path d="M677.41 74.18L677.41 75.79L685.65 75.79L685.65 74.18zM682.8 74.98 a2.85 2.85 0 1 0 5.7 0 a2.85 2.85 0 1 0 -5.7 0zM675.38 85.99L674.76 87.47L688.78 93.28L689.39 91.79zM686.24 92.53 a2.85 2.85 0 1 0 5.7 0 a2.85 2.85 0 1 0 -5.7 0zM668.99 96.12L667.85 97.25L672.64 102.05L673.78 100.91zM670.36 101.48 a2.85 2.85 0 1 0 5.7 0 a2.85 2.85 0 1 0 -5.7 0zM659.2 103.03L657.72 103.65L663.29 117.09L664.77 116.47zM661.18 116.78 a2.85 2.85 0 1 0 5.7 0 a2.85 2.85 0 1 0 -5.7 0zM647.52 105.68L645.91 105.68L645.91 118.72L647.52 118.72zM643.87 118.72 a2.85 2.85 0 1 0 5.7 0 a2.85 2.85 0 1 0 -5.7 0zM635.71 103.65L634.23 103.03L630.99 110.84L632.48 111.45zM628.89 111.15 a2.85 2.85 0 1 0 5.7 0 a2.85 2.85 0 1 0 -5.7 0zM625.58 97.25L624.45 96.12L615.92 104.64L617.06 105.77zM613.64 105.21 a2.85 2.85 0 1 0 5.7 0 a2.85 2.85 0 1 0 -5.7 0zM618.67 87.47L618.05 85.99L609.12 89.69L609.73 91.17zM606.58 90.43 a2.85 2.85 0 1 0 5.7 0 a2.85 2.85 0 1 0 -5.7 0zM616.02 75.79L616.02 74.18L603.07 74.18L603.07 75.79zM600.22 74.98 a2.85 2.85 0 1 0 5.7 0 a2.85 2.85 0 1 0 -5.7 0zM618.05 63.98L618.67 62.5L613.42 60.32L612.81 61.81zM610.26 61.06 a2.85 2.85 0 1 0 5.7 0 a2.85 2.85 0 1 0 -5.7 0zM624.45 53.85L625.58 52.71L617.31 44.44L616.17 45.58zM613.89 45.01 a2.85 2.85 0 1 0 5.7 0 a2.85 2.85 0 1 0 -5.7 0zM634.23 46.94L635.71 46.32L630.94 34.8L629.46 35.41zM627.35 35.11 a2.85 2.85 0 1 0 5.7 0 a2.85 2.85 0 1 0 -5.7 0zM645.91 44.29L647.52 44.29L647.52 30.92L645.91 30.92zM643.87 30.92 a2.85 2.85 0 1 0 5.7 0 a2.85 2.85 0 1 0 -5.7 0zM657.72 46.32L659.2 46.94L661.48 41.43L660 40.81zM657.89 41.12 a2.85 2.85 0 1 0 5.7 0 a2.85 2.85 0 1 0 -5.7 0zM667.85 52.71L668.99 53.85L672.49 50.35L671.35 49.21zM669.07 49.78 a2.85 2.85 0 1 0 5.7 0 a2.85 2.85 0 1 0 -5.7 0zM674.76 62.5L675.38 63.98L683.96 60.43L683.35 58.94zM680.8 59.68 a2.85 2.85 0 1 0 5.7 0 a2.85 2.85 0 1 0 -5.7 0zM616.02 74.98 a30.7 30.7 0 1 0 61.4 0 a30.7 30.7 0 1 0 -61.4 0z" fill="rgba(179, 142, 93, 1)"></path>
        <path d="M621.77 57.09 A29.70224 29.70224 0 0 1 674.66 62.27M674.66 62.27 A61.40448 61.40448 0 0 0 621.77 57.09" fill="#947246" fill-rule="nonzero"></path>
        <path d="M641.53 60.71 a6.14 6.14 0 1 0 12.28 0 a6.14 6.14 0 1 0 -12.28 0zM660.45 65.89 a6.14 6.14 0 1 0 12.28 0 a6.14 6.14 0 1 0 -12.28 0zM648.14 96.57 a6.14 6.14 0 1 0 12.28 0 a6.14 6.14 0 1 0 -12.28 0zM616.2 73.16 a3.07 3.07 0 1 0 6.14 0 a3.07 3.07 0 1 0 -6.14 0zM621.31 85.37 a4.3 4.3 0 1 0 8.6 0 a4.3 4.3 0 1 0 -8.6 0zM627.48 52.99 a3.68 3.68 0 1 0 7.36 0 a3.68 3.68 0 1 0 -7.36 0zM643.57 81.62 a3.99 3.99 0 1 0 7.98 0 a3.99 3.99 0 1 0 -7.98 0zM629.54 68.08 a3.68 3.68 0 1 0 7.36 0 a3.68 3.68 0 1 0 -7.36 0zM663.85 87.94 a1.84 1.84 0 1 0 3.68 0 a1.84 1.84 0 1 0 -3.68 0zM656.82 51.08 a3.07 3.07 0 1 0 6.14 0 a3.07 3.07 0 1 0 -6.14 0z" fill="#947246" fill-rule="nonzero"></path>
        <path d="M847.07 52.48L847.07 54.09L851.81 54.09L851.81 52.48zM848.96 53.28 a2.85 2.85 0 1 0 5.7 0 a2.85 2.85 0 1 0 -5.7 0zM845.04 64.29L844.43 65.77L851.85 68.84L852.46 67.36zM849.3 68.1 a2.85 2.85 0 1 0 5.7 0 a2.85 2.85 0 1 0 -5.7 0zM838.65 74.42L837.51 75.55L840.9 78.94L842.04 77.8zM838.62 78.37 a2.85 2.85 0 1 0 5.7 0 a2.85 2.85 0 1 0 -5.7 0zM828.87 81.33L827.38 81.95L832.92 95.31L834.4 94.69zM830.81 95 a2.85 2.85 0 1 0 5.7 0 a2.85 2.85 0 1 0 -5.7 0zM817.18 83.97L815.58 83.97L815.58 89.87L817.18 89.87zM813.53 89.87 a2.85 2.85 0 1 0 5.7 0 a2.85 2.85 0 1 0 -5.7 0zM805.38 81.95L803.89 81.33L799.65 91.56L801.14 92.17zM797.55 91.87 a2.85 2.85 0 1 0 5.7 0 a2.85 2.85 0 1 0 -5.7 0zM795.24 75.55L794.11 74.42L785.31 83.21L786.45 84.35zM783.03 83.78 a2.85 2.85 0 1 0 5.7 0 a2.85 2.85 0 1 0 -5.7 0zM788.33 65.77L787.72 64.29L781.82 66.73L782.44 68.21zM779.28 67.47 a2.85 2.85 0 1 0 5.7 0 a2.85 2.85 0 1 0 -5.7 0zM785.69 54.09L785.69 52.48L774.89 52.48L774.89 54.09zM772.04 53.28 a2.85 2.85 0 1 0 5.7 0 a2.85 2.85 0 1 0 -5.7 0zM787.72 42.28L788.33 40.8L778.83 36.86L778.22 38.35zM775.68 37.6 a2.85 2.85 0 1 0 5.7 0 a2.85 2.85 0 1 0 -5.7 0zM794.11 32.15L795.24 31.01L785.66 21.42L784.52 22.56zM782.24 21.99 a2.85 2.85 0 1 0 5.7 0 a2.85 2.85 0 1 0 -5.7 0zM803.89 25.24L805.38 24.62L803.42 19.91L801.94 20.52zM799.83 20.22 a2.85 2.85 0 1 0 5.7 0 a2.85 2.85 0 1 0 -5.7 0zM815.58 22.59L817.18 22.59L817.18 10.22L815.58 10.22zM813.53 10.22 a2.85 2.85 0 1 0 5.7 0 a2.85 2.85 0 1 0 -5.7 0zM827.38 24.62L828.87 25.24L830.79 20.59L829.31 19.97zM827.2 20.28 a2.85 2.85 0 1 0 5.7 0 a2.85 2.85 0 1 0 -5.7 0zM837.51 31.01L838.65 32.15L844.04 26.75L842.91 25.62zM840.63 26.19 a2.85 2.85 0 1 0 5.7 0 a2.85 2.85 0 1 0 -5.7 0zM844.43 40.8L845.04 42.28L850.34 40.09L849.72 38.6zM847.18 39.35 a2.85 2.85 0 1 0 5.7 0 a2.85 2.85 0 1 0 -5.7 0zM785.68 53.28 a30.7 30.7 0 1 0 61.4 0 a30.7 30.7 0 1 0 -61.4 0z" fill="rgba(157, 36, 73, 1)"></path>
        <path d="M800.4 79.5 A29.70224 29.70224 0 0 1 801.61 26.37M801.61 26.37 A61.40448 61.40448 0 0 0 800.4 79.5" fill="#7e1d3a" fill-rule="nonzero"></path>
        <path d="M803.93 28.31 a4.3 4.3 0 1 0 8.6 0 a4.3 4.3 0 1 0 -8.6 0zM790.34 40.55 a6.14 6.14 0 1 0 12.28 0 a6.14 6.14 0 1 0 -12.28 0zM807.2 65.17 a6.14 6.14 0 1 0 12.28 0 a6.14 6.14 0 1 0 -12.28 0zM797.76 71.97 a2.46 2.46 0 1 0 4.92 0 a2.46 2.46 0 1 0 -4.92 0zM830.91 75.11 a2.76 2.76 0 1 0 5.52 0 a2.76 2.76 0 1 0 -5.52 0zM819.03 49.43 a6.14 6.14 0 1 0 12.28 0 a6.14 6.14 0 1 0 -12.28 0zM786.1 56.12 a4.3 4.3 0 1 0 8.6 0 a4.3 4.3 0 1 0 -8.6 0zM806.07 49.46 a2.15 2.15 0 1 0 4.3 0 a2.15 2.15 0 1 0 -4.3 0zM836.94 53.93 a2.76 2.76 0 1 0 5.52 0 a2.76 2.76 0 1 0 -5.52 0zM818.36 25.04 a1.84 1.84 0 1 0 3.68 0 a1.84 1.84 0 1 0 -3.68 0z" fill="#7e1d3a" fill-rule="nonzero"></path>
        <path d="M380.56 57.97L380.56 59.57L395.61 59.57L395.61 57.97zM392.76 58.77 a2.85 2.85 0 1 0 5.7 0 a2.85 2.85 0 1 0 -5.7 0zM378.53 69.77L377.92 71.26L385 74.19L385.61 72.7zM382.45 73.45 a2.85 2.85 0 1 0 5.7 0 a2.85 2.85 0 1 0 -5.7 0zM372.14 79.9L371 81.04L377.86 87.9L379 86.76zM375.58 87.33 a2.85 2.85 0 1 0 5.7 0 a2.85 2.85 0 1 0 -5.7 0zM362.36 86.82L360.87 87.43L364.45 96.07L365.94 95.46zM362.34 95.76 a2.85 2.85 0 1 0 5.7 0 a2.85 2.85 0 1 0 -5.7 0zM350.67 89.46L349.07 89.46L349.07 97.25L350.67 97.25zM347.02 97.25 a2.85 2.85 0 1 0 5.7 0 a2.85 2.85 0 1 0 -5.7 0zM338.87 87.43L337.38 86.82L333.74 95.62L335.22 96.24zM331.63 95.93 a2.85 2.85 0 1 0 5.7 0 a2.85 2.85 0 1 0 -5.7 0zM328.74 81.04L327.6 79.9L323.24 84.27L324.37 85.4zM320.96 84.83 a2.85 2.85 0 1 0 5.7 0 a2.85 2.85 0 1 0 -5.7 0zM321.82 71.26L321.21 69.77L311.83 73.66L312.45 75.14zM309.29 74.4 a2.85 2.85 0 1 0 5.7 0 a2.85 2.85 0 1 0 -5.7 0zM319.18 59.57L319.18 57.97L314.76 57.97L314.76 59.57zM311.91 58.77 a2.85 2.85 0 1 0 5.7 0 a2.85 2.85 0 1 0 -5.7 0zM321.21 47.77L321.82 46.28L311.22 41.89L310.6 43.37zM308.06 42.63 a2.85 2.85 0 1 0 5.7 0 a2.85 2.85 0 1 0 -5.7 0zM327.6 37.64L328.74 36.5L322.12 29.89L320.99 31.02zM318.71 30.46 a2.85 2.85 0 1 0 5.7 0 a2.85 2.85 0 1 0 -5.7 0zM337.38 30.72L338.87 30.11L336.47 24.32L334.99 24.94zM332.88 24.63 a2.85 2.85 0 1 0 5.7 0 a2.85 2.85 0 1 0 -5.7 0zM349.07 28.08L350.67 28.08L350.67 19.86L349.07 19.86zM347.02 19.86 a2.85 2.85 0 1 0 5.7 0 a2.85 2.85 0 1 0 -5.7 0zM360.87 30.11L362.36 30.72L367 19.52L365.51 18.91zM363.4 19.22 a2.85 2.85 0 1 0 5.7 0 a2.85 2.85 0 1 0 -5.7 0zM371 36.5L372.14 37.64L382.65 27.13L381.51 25.99zM379.23 26.56 a2.85 2.85 0 1 0 5.7 0 a2.85 2.85 0 1 0 -5.7 0zM377.92 46.28L378.53 47.77L384.3 45.38L383.68 43.89zM381.14 44.64 a2.85 2.85 0 1 0 5.7 0 a2.85 2.85 0 1 0 -5.7 0zM319.17 58.77 a30.7 30.7 0 1 0 61.4 0 a30.7 30.7 0 1 0 -61.4 0z" fill="rgba(179, 142, 93, 1)"></path>
        <path d="M374.96 76.46 A29.70224 29.70224 0 0 1 322.03 71.72M322.03 71.72 A61.40448 61.40448 0 0 0 374.96 76.46" fill="#947246" fill-rule="nonzero"></path>
        <path d="M364.66 51.21 a6.14 6.14 0 1 0 12.28 0 a6.14 6.14 0 1 0 -12.28 0zM324.34 46.45 a6.14 6.14 0 1 0 12.28 0 a6.14 6.14 0 1 0 -12.28 0zM343.36 46.04 a6.14 6.14 0 1 0 12.28 0 a6.14 6.14 0 1 0 -12.28 0zM341.61 30.19 a1.23 1.23 0 1 0 2.46 0 a1.23 1.23 0 1 0 -2.46 0zM353.18 74.28 a6.14 6.14 0 1 0 12.28 0 a6.14 6.14 0 1 0 -12.28 0zM343.85 61.66 a3.38 3.38 0 1 0 6.76 0 a3.38 3.38 0 1 0 -6.76 0zM350.12 86.95 a2.15 2.15 0 1 0 4.3 0 a2.15 2.15 0 1 0 -4.3 0zM321.05 58.48 a1.84 1.84 0 1 0 3.68 0 a1.84 1.84 0 1 0 -3.68 0zM321.62 70.12 a2.76 2.76 0 1 0 5.52 0 a2.76 2.76 0 1 0 -5.52 0zM360.59 38.92 a2.15 2.15 0 1 0 4.3 0 a2.15 2.15 0 1 0 -4.3 0z" fill="#947246" fill-rule="nonzero"></path>
        <path d="M1159.14 59L1159.14 60.6L1170.94 60.6L1170.94 59zM1168.09 59.8 a2.85 2.85 0 1 0 5.7 0 a2.85 2.85 0 1 0 -5.7 0zM1157.11 70.8L1156.49 72.29L1164.71 75.69L1165.32 74.2zM1162.16 74.95 a2.85 2.85 0 1 0 5.7 0 a2.85 2.85 0 1 0 -5.7 0zM1150.72 80.93L1149.58 82.07L1159.37 91.86L1160.5 90.72zM1157.08 91.29 a2.85 2.85 0 1 0 5.7 0 a2.85 2.85 0 1 0 -5.7 0zM1140.93 87.85L1139.45 88.46L1141.12 92.49L1142.6 91.88zM1139.01 92.18 a2.85 2.85 0 1 0 5.7 0 a2.85 2.85 0 1 0 -5.7 0zM1129.25 90.49L1127.64 90.49L1127.64 97.39L1129.25 97.39zM1125.59 97.39 a2.85 2.85 0 1 0 5.7 0 a2.85 2.85 0 1 0 -5.7 0zM1117.44 88.46L1115.96 87.85L1113.58 93.59L1115.07 94.2zM1111.47 93.89 a2.85 2.85 0 1 0 5.7 0 a2.85 2.85 0 1 0 -5.7 0zM1107.31 82.07L1106.17 80.93L1102.05 85.06L1103.19 86.19zM1099.77 85.62 a2.85 2.85 0 1 0 5.7 0 a2.85 2.85 0 1 0 -5.7 0zM1100.4 72.29L1099.78 70.8L1094.06 73.17L1094.68 74.66zM1091.52 73.91 a2.85 2.85 0 1 0 5.7 0 a2.85 2.85 0 1 0 -5.7 0zM1097.75 60.6L1097.75 59L1091.43 59L1091.43 60.6zM1088.58 59.8 a2.85 2.85 0 1 0 5.7 0 a2.85 2.85 0 1 0 -5.7 0zM1099.78 48.8L1100.4 47.31L1089.32 42.72L1088.7 44.21zM1086.16 43.47 a2.85 2.85 0 1 0 5.7 0 a2.85 2.85 0 1 0 -5.7 0zM1106.17 38.67L1107.31 37.53L1098.56 28.78L1097.43 29.92zM1095.15 29.35 a2.85 2.85 0 1 0 5.7 0 a2.85 2.85 0 1 0 -5.7 0zM1115.96 31.75L1117.44 31.14L1114.8 24.75L1113.31 25.37zM1111.21 25.06 a2.85 2.85 0 1 0 5.7 0 a2.85 2.85 0 1 0 -5.7 0zM1127.64 29.11L1129.25 29.11L1129.25 15.55L1127.64 15.55zM1125.59 15.55 a2.85 2.85 0 1 0 5.7 0 a2.85 2.85 0 1 0 -5.7 0zM1139.45 31.14L1140.93 31.75L1143.63 25.25L1142.14 24.63zM1140.03 24.94 a2.85 2.85 0 1 0 5.7 0 a2.85 2.85 0 1 0 -5.7 0zM1149.58 37.53L1150.72 38.67L1158.05 31.33L1156.91 30.2zM1154.63 30.76 a2.85 2.85 0 1 0 5.7 0 a2.85 2.85 0 1 0 -5.7 0zM1156.49 47.31L1157.11 48.8L1170.36 43.31L1169.74 41.82zM1167.2 42.57 a2.85 2.85 0 1 0 5.7 0 a2.85 2.85 0 1 0 -5.7 0zM1097.74 59.8 a30.7 30.7 0 1 0 61.4 0 a30.7 30.7 0 1 0 -61.4 0z" fill="rgba(157, 36, 73, 1)"></path>
        <path d="M1120.49 30.15 A29.70224 29.70224 0 0 1 1158.12 67.67M1158.12 67.67 A61.40448 61.40448 0 0 0 1120.49 30.15" fill="#7e1d3a" fill-rule="nonzero"></path>
        <path d="M1115.5 82.09 a6.14 6.14 0 1 0 12.28 0 a6.14 6.14 0 1 0 -12.28 0zM1134.76 84.16 a3.99 3.99 0 1 0 7.98 0 a3.99 3.99 0 1 0 -7.98 0zM1100.17 70.58 a3.07 3.07 0 1 0 6.14 0 a3.07 3.07 0 1 0 -6.14 0zM1109.9 42.44 a6.14 6.14 0 1 0 12.28 0 a6.14 6.14 0 1 0 -12.28 0zM1143.25 54.16 a6.14 6.14 0 1 0 12.28 0 a6.14 6.14 0 1 0 -12.28 0zM1108.74 56.8 a2.76 2.76 0 1 0 5.52 0 a2.76 2.76 0 1 0 -5.52 0zM1125.35 32.26 a3.07 3.07 0 1 0 6.14 0 a3.07 3.07 0 1 0 -6.14 0zM1137.27 69.94 a4.3 4.3 0 1 0 8.6 0 a4.3 4.3 0 1 0 -8.6 0zM1118.41 63.71 a3.07 3.07 0 1 0 6.14 0 a3.07 3.07 0 1 0 -6.14 0zM1138.32 39.43 a3.99 3.99 0 1 0 7.98 0 a3.99 3.99 0 1 0 -7.98 0z" fill="#7e1d3a" fill-rule="nonzero"></path>
        <path d="M128.45 56.34L128.45 57.94L140.88 57.94L140.88 56.34zM138.03 57.14 a2.85 2.85 0 1 0 5.7 0 a2.85 2.85 0 1 0 -5.7 0zM126.42 68.14L125.8 69.63L132.11 72.24L132.73 70.76zM129.57 71.5 a2.85 2.85 0 1 0 5.7 0 a2.85 2.85 0 1 0 -5.7 0zM120.03 78.27L118.89 79.41L124.62 85.15L125.76 84.01zM122.34 84.58 a2.85 2.85 0 1 0 5.7 0 a2.85 2.85 0 1 0 -5.7 0zM110.24 85.19L108.76 85.8L112.93 95.87L114.41 95.26zM110.82 95.57 a2.85 2.85 0 1 0 5.7 0 a2.85 2.85 0 1 0 -5.7 0zM98.56 87.83L96.95 87.83L96.95 96.62L98.56 96.62zM94.9 96.62 a2.85 2.85 0 1 0 5.7 0 a2.85 2.85 0 1 0 -5.7 0zM86.75 85.8L85.27 85.19L83.38 89.74L84.87 90.36zM81.27 90.05 a2.85 2.85 0 1 0 5.7 0 a2.85 2.85 0 1 0 -5.7 0zM76.62 79.41L75.48 78.27L66.18 87.58L67.31 88.72zM63.9 88.15 a2.85 2.85 0 1 0 5.7 0 a2.85 2.85 0 1 0 -5.7 0zM69.71 69.63L69.09 68.14L62.54 70.86L63.16 72.34zM60 71.6 a2.85 2.85 0 1 0 5.7 0 a2.85 2.85 0 1 0 -5.7 0zM67.06 57.94L67.06 56.34L55.11 56.34L55.11 57.94zM52.26 57.14 a2.85 2.85 0 1 0 5.7 0 a2.85 2.85 0 1 0 -5.7 0zM69.09 46.14L69.71 44.65L63.41 42.05L62.8 43.53zM60.26 42.79 a2.85 2.85 0 1 0 5.7 0 a2.85 2.85 0 1 0 -5.7 0zM75.48 36.01L76.62 34.87L68.71 26.96L67.57 28.09zM65.29 27.53 a2.85 2.85 0 1 0 5.7 0 a2.85 2.85 0 1 0 -5.7 0zM85.27 29.09L86.75 28.48L83.51 20.64L82.02 21.26zM79.91 20.95 a2.85 2.85 0 1 0 5.7 0 a2.85 2.85 0 1 0 -5.7 0zM96.95 26.45L98.56 26.45L98.56 20.69L96.95 20.69zM94.9 20.69 a2.85 2.85 0 1 0 5.7 0 a2.85 2.85 0 1 0 -5.7 0zM108.76 28.48L110.24 29.09L112.93 22.61L111.44 21.99zM109.34 22.3 a2.85 2.85 0 1 0 5.7 0 a2.85 2.85 0 1 0 -5.7 0zM118.89 34.87L120.03 36.01L126.08 29.95L124.94 28.82zM122.66 29.39 a2.85 2.85 0 1 0 5.7 0 a2.85 2.85 0 1 0 -5.7 0zM125.8 44.65L126.42 46.14L136.26 42.06L135.64 40.58zM133.1 41.32 a2.85 2.85 0 1 0 5.7 0 a2.85 2.85 0 1 0 -5.7 0zM67.05 57.14 a30.7 30.7 0 1 0 61.4 0 a30.7 30.7 0 1 0 -61.4 0z" fill="rgba(157, 36, 73, 1)"></path>
        <path d="M125.12 71.06 A29.70224 29.70224 0 0 1 72.06 73.94M72.06 73.94 A61.40448 61.40448 0 0 0 125.12 71.06" fill="#7e1d3a" fill-rule="nonzero"></path>
        <path d="M98.16 53.22 a6.14 6.14 0 1 0 12.28 0 a6.14 6.14 0 1 0 -12.28 0zM76.9 36.24 a3.38 3.38 0 1 0 6.76 0 a3.38 3.38 0 1 0 -6.76 0zM99.92 71.21 a5.53 5.53 0 1 0 11.06 0 a5.53 5.53 0 1 0 -11.06 0zM105.31 34.06 a4.61 4.61 0 1 0 9.22 0 a4.61 4.61 0 1 0 -9.22 0zM116.63 55.57 a1.84 1.84 0 1 0 3.68 0 a1.84 1.84 0 1 0 -3.68 0zM83.4 47.91 a4.3 4.3 0 1 0 8.6 0 a4.3 4.3 0 1 0 -8.6 0zM105.68 85.05 a1.23 1.23 0 1 0 2.46 0 a1.23 1.23 0 1 0 -2.46 0zM73.18 64.7 a6.14 6.14 0 1 0 12.28 0 a6.14 6.14 0 1 0 -12.28 0zM122.69 47.92 a1.54 1.54 0 1 0 3.08 0 a1.54 1.54 0 1 0 -3.08 0zM119.97 65.96 a3.38 3.38 0 1 0 6.76 0 a3.38 3.38 0 1 0 -6.76 0z" fill="#7e1d3a" fill-rule="nonzero"></path>
    </g>
    <defs>
        <mask id="SvgjsMask1186">
            <rect width="1242" height="128" fill="#ffffff"></rect>
        </mask>
        <linearGradient x1="22.42%" y1="-217.58%" x2="77.58%" y2="317.58%" gradientUnits="userSpaceOnUse" id="SvgjsLinearGradient1187">
            <stop stop-color="rgba(19, 50, 43, 1)" offset="0"></stop>
            <stop stop-color="rgba(19, 50, 43, 1)" offset="0.52"></stop>
            <stop stop-color="rgba(179, 142, 93, 1)" offset="1"></stop>
        </linearGradient>
    </defs>
</svg>
