<svg xmlns="http://www.w3.org/2000/svg" version="1.1"
    xmlns:xlink="http://www.w3.org/1999/xlink"
    xmlns:svgjs="http://svgjs.dev/svgjs" width="1241.33" height="128" preserveAspectRatio="none" viewBox="0 0 1241.33 128">
    <g mask="url(&quot;#SvgjsMask1102&quot;)" fill="none">
        <rect width="1241.33" height="128" x="0" y="0" fill="#132932"></rect>
        <path d="M0,339.787C63.069,338.115,112.015,290.413,168.229,261.769C231.731,229.411,317.661,223.237,351.66,160.598C385.668,97.943,354.701,20.554,336.579,-48.393C320.158,-110.867,293.686,-169.016,252.045,-218.399C209.979,-268.287,156.222,-303.556,97.472,-331.959C29.03,-365.048,-46.268,-425.796,-116.435,-396.543C-188.157,-366.642,-176.9,-256.094,-226.991,-196.689C-276.002,-138.565,-377.38,-129.719,-402.063,-57.808C-426.765,14.156,-392.622,96.984,-349.253,159.498C-308.997,217.525,-236.817,238.45,-174.061,270.845C-117.461,300.062,-63.674,341.475,0,339.787" fill="#13322b"></path>
        <path d="M1241.33 393.392C1297.3709999999999 406.339 1364.4199999999998 425.627 1410.369 391.031 1456.695 356.151 1434.153 279.73699999999997 1460.733 228.19799999999998 1489.3999999999999 172.613 1565.9119999999998 143.063 1570.422 80.684 1574.9409999999998 18.177999999999997 1532.127-42.45099999999999 1483.126-81.518 1437.0659999999998-118.24000000000001 1372.7839999999999-111.42699999999999 1315.014-122.946 1263.048-133.308 1211.2959999999998-162.27800000000002 1160.9479999999999-145.757 1110.954-129.35199999999998 1088.105-74.287 1051.509-36.480999999999995 1012.2929999999999 4.0319999999999965 952.6109999999999 29.911 938.1499999999999 84.40899999999999 923.3919999999999 140.025 941.2849999999999 203.186 975.6719999999999 249.322 1007.8989999999999 292.55899999999997 1068.594 297.312 1115.998 323.02 1158.9859999999999 346.33299999999997 1193.682 382.384 1241.33 393.392" fill="#13321C"></path>
    </g>
    <defs>
        <mask id="SvgjsMask1102">
            <rect width="1241.33" height="128" fill="#ffffff"></rect>
        </mask>
    </defs>
</svg>
